<?xml version="1.0" encoding="UTF-8"?>
<!DOCTYPE svg PUBLIC "-//W3C//DTD SVG 1.1//EN" "http://www.w3.org/Graphics/SVG/1.1/DTD/svg11.dtd">
<!-- Creator: CorelDRAW X5 -->
<svg xmlns="http://www.w3.org/2000/svg" xml:space="preserve" width="100mm" height="18.859mm" style="shape-rendering:geometricPrecision; text-rendering:geometricPrecision; image-rendering:optimizeQuality; fill-rule:evenodd; clip-rule:evenodd"
viewBox="0 0 10000 1886"
 xmlns:xlink="http://www.w3.org/1999/xlink">
 <defs>
  <style type="text/css">
   <![CDATA[
    .fil0 {fill:black;fill-rule:nonzero}
   ]]>
  </style>
 </defs>
 <g id="Capa_x0020_1">
  <metadata id="CorelCorpID_0Corel-Layer"/>
  <path class="fil0" d="M621 1220l0 -471c108,0 162,-41 162,-124 0,-75 -41,-113 -124,-113 -83,0 -125,52 -125,155l0 1174 -534 0 0 -1118c0,-116 12,-211 35,-285 23,-74 63,-143 119,-207 63,-71 142,-127 237,-168 95,-41 193,-62 293,-62 183,0 336,62 460,184 124,123 186,275 186,457 0,177 -56,319 -167,429 -102,101 -255,151 -460,151l-82 -1zm1386 -1175l0 1796 -492 0 0 -1796 492 0zm1017 1304l0 509c-40,7 -77,11 -110,11 -197,0 -362,-65 -494,-195 -132,-130 -197,-292 -197,-488 0,-190 66,-352 199,-484 133,-132 295,-199 485,-199 212,0 380,62 502,186 123,124 184,294 184,508l0 644 -492 0 0 -608c0,-69 -17,-124 -51,-166 -34,-41 -79,-62 -136,-62 -52,0 -97,19 -134,57 -38,38 -57,83 -57,134 0,55 17,99 51,135 34,35 78,53 130,53 43,0 83,-12 120,-35zm2025 492l-492 0 0 -741c0,-75 -31,-113 -93,-113 -62,0 -92,38 -92,113l0 741 -492 0 0 -732c0,-171 57,-315 170,-432 113,-117 252,-176 416,-176 188,0 338,68 451,204 88,106 133,254 133,443l0 692zm909 -1339c186,0 345,67 478,201 133,134 199,294 199,481 0,189 -67,351 -202,484 -134,133 -297,200 -487,200 -190,0 -353,-67 -488,-201 -135,-134 -203,-295 -203,-483 0,-192 67,-354 203,-485 135,-131 302,-197 500,-197zm-13 486c-53,0 -97,19 -134,57 -37,38 -55,85 -55,140 0,55 19,101 56,140 37,39 82,58 133,58 53,0 97,-19 135,-58 37,-39 56,-85 56,-140 0,-55 -18,-102 -55,-140 -37,-38 -82,-57 -136,-57zm1718 -440l0 518c-69,0 -117,13 -143,39 -26,26 -42,77 -49,153 -22,254 -121,433 -295,537 -92,54 -223,82 -392,82l-68 0 0 -521 22 0c79,0 135,-17 169,-49 34,-33 53,-91 59,-173 7,-134 19,-229 37,-283 18,-54 55,-108 110,-162 96,-94 230,-141 401,-141l149 0zm160 0l492 0 0 741c0,75 31,112 93,112 62,0 92,-37 92,-112l0 -741 492 0 0 732c0,170 -57,314 -170,431 -113,117 -252,176 -416,176 -187,0 -337,-68 -451,-204 -88,-106 -133,-254 -133,-442l0 -692zm2177 -31l0 526c-34,-19 -66,-29 -93,-29 -89,0 -134,68 -134,205l0 623 -492 0 0 -717c0,-189 52,-340 155,-453 103,-113 242,-169 415,-169 39,0 88,5 150,14z"/>
 </g>
</svg>
